<?xml version="1.0" encoding="utf-8"?>
<!-- Generator: Adobe Illustrator 16.0.0, SVG Export Plug-In . SVG Version: 6.00 Build 0)  -->
<!DOCTYPE svg PUBLIC "-//W3C//DTD SVG 1.1//EN" "http://www.w3.org/Graphics/SVG/1.1/DTD/svg11.dtd">
<svg version="1.1" id="Layer_1" xmlns="http://www.w3.org/2000/svg" xmlns:xlink="http://www.w3.org/1999/xlink" x="0px" y="0px"
	 width="1023.914px" height="116.779px" viewBox="0 325.61 1023.914 116.779" enable-background="new 0 325.61 1023.914 116.779"
	 xml:space="preserve">
<g>
	<path d="M149.485,426.837c0,6.577-7.732,11.998-15.375,11.998c-5.954,0-9.154-4.799-9.154-8.799
		c0-4.266,4.266-11.998,12.531-11.998C144.953,417.949,149.485,422.216,149.485,426.837z M915.219,432.703
		c0,0.889-0.267,1.688-0.889,2.844c-1.422,1.955-3.377,2.844-5.421,2.844c-1.955,0-3.999-0.533-5.955-1.688
		c-8.709-4.354-24.973-18.308-35.638-34.928c0,10.31,0,17.687,0.267,24.707c0,0.533,0,1.155,0,1.688
		c0,8.532-1.955,10.843-6.844,10.843c-5.421,0-7.731-1.955-7.731-9.421c0-9.42,0-19.907,0-29.861c0-12.265,0-23.641-0.889-31.639
		c-1.155-11.376-5.422-14.486-5.422-18.219c0-4,3.111-6.577,6.577-6.577c5.688,0,11.376,8.266,11.376,21.686
		c0,0.533,0,1.155,0,1.777c8.265-14.22,21.862-25.062,31.639-25.062c9.42,0,15.908,7.731,15.908,15.908
		c0,14.042-15.553,31.728-32.083,40.171c10.843,13.242,22.04,21.597,26.929,25.329C912.375,427.015,915.219,429.503,915.219,432.703
		z M868.472,388.799c3.732,0,11.998-1.955,22.484-14.842c4.533-5.688,7.11-11.643,7.11-15.375c0-1.422-0.267-2.577-1.155-3.11
		c-0.533-0.533-1.422-0.889-2.311-0.889c-3.11,0-7.999,3.377-14.486,10.843C872.204,374.846,868.472,381.689,868.472,388.799z
		 M411.484,337.875c-5.155,0.533-6.844,3.11-6.844,11.108c0,1.956,0,4.267,0.267,7.11c1.422,23.641,4.266,47.014,6.844,67.455
		c1.422,10.576,3.732,13.42,7.999,13.42c0.533,0,1.421-0.267,1.956-0.267c4.266-0.533,6.221-2.577,6.221-7.999
		c0-1.688-0.267-3.377-0.533-5.688c-1.066-7.377-2.133-16.441-3.199-25.685c11.553,11.465,28.884,24.352,34.305,28.528
		c3.377,2.577,6.577,3.999,9.154,3.999c2.311,0,4.532-1.155,6.221-3.377c1.155-1.688,1.688-3.11,1.688-4.532
		c0-2.844-2.311-5.422-7.376-8.799c-7.377-4.977-18.486-13.509-33.861-26.04c14.486-16.175,27.995-32.616,34.128-41.415
		c0.267-0.267,0.267-0.533,0.267-0.889c0-2.311-4.266-7.109-7.732-7.109c-0.267,0-0.533,0-0.889,0
		c-8.087,7.554-17.241,16.619-37.949,42.215c-1.066-10.043-1.866-19.02-2.221-24.618c-1.156-13.42-2.311-17.33-7.11-17.33
		C412.64,337.875,412.018,337.875,411.484,337.875z M219.518,391.109c-15.908-9.687-30.75-17.952-30.75-25.328
		c0-6.844,9.688-19.908,12.265-19.908c4,0,2.844,4.533,8.265,4.533c5.421,0,8.532-7.11,8.532-14.22
		c0-7.11-3.111-10.576-8.532-10.576c-11.998,0-19.641,8.798-25.329,17.33c-5.155,7.732-7.999,17.063-7.999,25.062
		c0,20.796,24.796,30.483,24.796,35.638c0,3.111-18.219,14.486-30.217,18.22c-4.266,1.422-4.533,4.266-4.533,8.265
		c0,3.378,0.889,7.999,4.266,7.999c0.267,0,0.889,0,1.422-0.267c10.576-3.377,30.75-13.064,47.814-34.483
		c1.155-1.422,3.11-4.532,3.11-6.843C222.717,393.688,220.939,391.999,219.518,391.109z M321.188,435.813
		c4.799,0,7.11-1.155,9.154-9.421c0.889-3.377,2.844-14.22,8.265-32.438c9.065-29.595,21.063-39.016,26.129-39.016
		c2.488,0,2.577,7.376,3.732,27.64c-4.177,0.444-8.443,0.978-11.998,1.688c-8.799,1.688-11.998,5.154-11.998,9.154
		c0,2.844,2.844,4.266,12.531,4.266c2.844,0,6.221,0,10.22-0.267c0.8-0.089,1.511-0.089,2.222-0.178
		c1.6,14.042,4.977,27.284,7.732,34.038c1.955,5.155,5.421,6.222,9.687,6.222s7.376-1.422,7.376-5.688
		c0-1.155-0.267-2.844-0.889-4.532c-1.866-5.776-5.688-17.774-7.732-32.438c4.888-1.6,6.043-3.821,6.043-7.466
		c0-4.177-2.222-5.51-7.199-5.688c-0.533-11.021-0.889-29.239-2.489-35.639c-1.422-5.688-3.999-10.22-10.842-10.22
		c-7.554,0-17.775,7.287-26.307,17.774c-0.355-5.422-1.866-9.51-5.066-9.51c-5.688,0-7.376,5.955-15.375,42.393
		c-6.221,28.173-9.42,37.86-9.42,43.814C315.234,434.392,316.923,435.813,321.188,435.813z M287.328,340.985
		c-4.533,0-6.221,1.955-6.221,8.265c0,0.89,0,1.956,0,3.111c0.267,6.398,1.6,15.553,3.021,29.15
		c-11.465,1.688-26.129,3.466-37.327,4.354c1.155-11.465,3.466-23.818,6.666-37.238c0.267-0.889,0.267-1.688,0.267-2.577
		c0-3.999-2.844-5.421-5.955-5.421c-4,0-9.154,1.422-9.154,5.954c0,11.643-5.688,33.328-8.265,50.125
		c-0.267,2.311-0.533,4.799-0.533,7.109c0,11.998,3.733,23.641,5.955,29.862c1.955,5.154,5.688,7.376,9.154,7.376
		c5.955,0,7.732-3.732,7.732-6.221c0-1.955-3.377-7.11-5.154-17.331c-0.8-5.243-1.333-10.753-1.422-16.264
		c10.842-1.066,27.373-3.466,39.459-5.865c1.155,13.42,0.978,23.641,2.4,30.661c1.688,6.221,4.799,10.221,8.798,10.221
		c0.267,0,0.533,0,0.889,0c3.111-0.267,5.688-3.377,5.955-7.999c0.267-1.688,0.267-3.377,0.267-4.799
		c0-7.999-1.688-15.908-2.577-41.859C300.125,355.827,297.548,340.985,287.328,340.985z M97.672,352.361
		c0-4.533,0.267-8.532,0.533-11.376c0.267-1.422,0.267-2.844,0.267-3.999c0-6.222-2.577-6.844-4.799-6.844
		c-4,0-10.843,12.531-17.686,25.596c-7.999,15.908-15.642,32.705-20.53,32.705c-3.377,0-9.154-7.109-19.908-34.749
		c-4.266-11.287-10.753-23.552-16.441-23.552h-1.155c-7.376,0-13.064,27.018-14.487,51.813c-1.155,19.996-2.044,24.529-2.933,34.482
		C0.267,420.705,0,424.971,0,428.97c0,7.732,1.155,13.42,5.421,13.42c4.799,0,12.265-5.688,13.064-19.107
		c0.267-3.377,0.267-6.577,0.267-8.799c0-8.265-0.889-12.531-0.889-23.907c0-11.286,1.777-23.64,4.088-31.461
		c4.799,26.573,20.085,42.304,31.817,42.304c11.464,0,22.485-15.642,30.217-30.217c1.777,18.485,3.733,36.438,7.91,58.923
		c1.155,6.577,4.533,10.576,9.154,10.576h0.533c3.999,0,5.421-3.999,5.421-10.843c0-8.798-2.578-22.218-5.421-36.171
		C98.827,379.468,97.672,363.737,97.672,352.361z M843.765,391.377c0,2.844-2.577,7.465-8.977,9.242
		c0.622,10.754,1.155,20.619,1.601,23.818c0.266,1.955,0.266,3.377,0.266,4.799c0,6.577-2.311,8.532-6.576,8.532
		c-4.799,0-7.377-3.11-7.999-11.109c-0.444-8.177-0.8-16.175-1.333-24.885c-8.976,0.355-20.263,0.622-30.483,0.711
		c-4.443,9.599-8.888,18.842-11.731,23.907c-3.999,7.11-6.843,10.843-11.109,10.843c-3.11,0-5.954-1.955-5.954-4.8
		c0-1.422,0.889-3.732,3.11-8.798c5.422-12.265,14.842-36.705,18.486-48.081c1.688-5.421,2.311-9.153,2.311-12.531
		c0-8.265-5.688-11.997-5.688-16.797c0-4.532,4-7.109,7.999-7.109c5.688,0,9.954,7.109,9.954,20.796c0,0.355,0,0.711,0,1.066
		c5.776-9.064,12.976-17.33,19.374-17.33c10.843,0,14.842,12.265,15.642,22.219c0.355,3.555,0.889,12.887,1.511,23.195
		c2.488-0.178,4.622-0.267,6.222-0.355c0.267,0,0.533,0,0.533,0C843.409,388.532,843.765,389.954,843.765,391.377z M819.946,389.51
		c-0.267-3.732-0.622-7.643-0.978-11.819c-0.533-6.844-2.844-19.642-4.799-19.642s-7.999,10.221-11.643,18.219
		c-1.777,3.733-3.999,8.443-6.398,13.687c0.355,0,0.622,0,0.978,0C804.749,389.954,812.748,389.776,819.946,389.51z
		 M982.674,421.594c-3.732,0-11.998,2.311-24.796,2.311c-7.731,0-7.731-6.311-7.731-16.53c0-2.399-0.089-5.6-0.178-9.421
		c15.997-0.622,38.838-1.866,56.879-3.91c7.731-0.889,12.265-3.733,12.265-9.154c0-2.844-1.155-3.732-4.8-3.732
		c-15.375,0-21.596,2.933-64.699,3.377c-0.178-7.287-0.444-15.73-0.533-24.707c0.355,0,0.711,0,1.066,0
		c17.952,0,40.438-1.955,51.279-3.377c9.421-1.155,13.42-4.266,13.42-9.688c0-2.311-1.955-3.377-6.221-3.11
		c-8.621,0.8-18.842,2.399-59.812,3.288c-1.066-7.82-4.532-11.553-9.064-11.553c-3.732,0-5.688,2.577-5.688,9.687
		c0,0.8,0,1.6,0,2.399c-9.776,1.066-14.221,3.733-14.221,8.354c0,2.666,3.467,3.555,14.486,3.821
		c0.355,8.266,0.801,15.819,1.156,24.974c-15.286,0.444-17.953,3.999-17.953,8.799c0,4.532,2.311,5.421,15.108,5.154
		c0.8,0,1.956-0.089,3.2-0.089c0.089,4.799,0,10.043-0.089,16.086c-0.267,10.843,3.999,23.107,15.108,23.107h21.329
		c8.266,0,13.42,0,14.842-6.222C988.361,424.171,985.784,421.594,982.674,421.594z M1012.891,417.327
		c-9.42,0-11.998,8.266-11.998,12.265c0,5.955,2.578,8.799,10.221,8.799c7.109,0,12.798-4.532,12.798-9.954
		C1024,423.815,1022.312,417.327,1012.891,417.327z M743.516,417.86c-0.267,0-0.889,0-1.155,0
		c-6.577,0.89-19.908,4.267-28.173,4.267c-5.422,0-7.999-2.577-7.999-6.577c0-1.422,0-2.577,0-4.266
		c0-3.021,0.089-6.577,0.444-10.665c7.377,0.533,16.264,0.978,24.618,0.978c4.799,0,9.421-0.267,13.064-0.533
		c5.421-0.533,7.109-1.955,7.109-5.954c0-0.267,0-0.889,0-1.155c-0.267-4.533-1.155-5.955-3.999-5.955c-0.267,0-0.533,0-0.889,0
		c-3.732,0.267-8.266,0.533-13.42,0.533c-7.732,0-16.797-0.444-24.796-1.155c1.866-9.509,5.511-19.907,9.421-30.306
		c5.51,0.089,13.42,0.089,24.174,0.089c6.843,0,12.531-0.889,12.531-7.376c0-5.955-4-6.222-9.154-6.222
		c-10.576,0-17.952,0.178-23.552,0.622c-0.533-1.688-2.488-2.755-5.776-3.466c-1.155-0.267-1.955-0.267-2.844-0.267
		c-3.378,0-4.533,1.955-6.222,5.688c-11.998,26.218-14.842,42.393-16.264,53.857c-0.267,2.577-0.533,5.155-0.533,7.732
		c0,9.42,1.955,18.752,4.799,23.906c2.577,4.533,7.377,6.222,13.064,6.222c2.311,0,4.8-0.267,7.11-0.889
		c6.843-1.422,26.218-4.8,36.171-4.8c2.845,0,4.533-0.533,4.533-3.732S750.892,417.86,743.516,417.86z M534.752,361.515
		c9.687,0,19.107-8.798,19.107-12.265c0-1.422-0.267-2.844-3.377-2.844c-7.199,0-29.595,0.889-47.281,1.244c0-0.711,0-1.244,0-1.866
		c0-5.954-0.267-9.42-6.843-9.42h-3.11c-5.955,0-7.377,5.154-7.377,9.953v37.327c0,13.953-1.155,23.374-1.155,33.327
		c0,13.687,18.219,19.375,37.327,19.375h4.799c19.375,0,23.641-4.533,23.641-11.109c0-4.799-0.533-7.11-4.8-7.11
		c-3.377,0-9.153,3.733-20.796,3.733c-19.375,0-24.796-5.688-24.796-13.42c0-2.666,0-5.333,0.089-7.91
		c10.398,0.267,20.53,0.711,28.439,0.711c5.154,0,9.421-0.267,12.265-0.533c1.955-0.267,3.377-3.732,3.377-7.109
		c0-2.311-0.889-4.533-2.311-5.422c-5.688-0.889-14.22-1.155-25.951-1.155c-4.532,0-9.776,0.178-15.464,0.267
		c0.444-9.509,1.066-17.952,1.6-24.885C514.222,362.137,527.375,361.515,534.752,361.515z M614.204,354.405
		c2.578-0.889,3.378-2.577,3.378-4.266c0-1.156-0.267-2.578-0.533-3.733c-0.889-2.577-2.578-3.999-5.155-3.999
		c-0.267,0-0.533,0-0.889,0c-12.265,0.267-47.28,15.642-47.28,37.86c0,18.219,31.905,21.329,31.905,27.018
		c0,5.154-5.954,8.265-33.594,16.53c-4.533,1.422-6.577,3.11-6.577,5.954c0,1.155,0.267,2.578,0.889,4
		c0.889,2.844,2.311,3.732,4.533,3.732c1.688,0,3.732-0.267,6.221-1.155c28.795-7.999,45.592-13.687,45.592-29.595
		c0-18.22-33.86-18.22-33.86-28.439C578.922,368.892,601.141,357.782,614.204,354.405z M695.346,351.206
		c0,19.996-26.573,41.237-58.212,46.125c-0.089,1.955-0.178,3.821-0.178,5.688c0,4.8,0.267,9.688,1.155,14.486
		c1.422,9.154,4.532,13.687,4.532,15.376c0,2.577-1.688,6.221-7.731,6.221c-3.377,0-7.11-2.311-9.154-7.377
		c-1.955-5.688-4.266-16.53-4.266-27.64c0-2.577,0-4.799,0.267-7.376c1.688-16.797,4.266-33.328,5.688-40.171
		c1.956-8.266,6.577-12.265,27.018-14.842l12.531-1.688c3.11-0.267,5.955-0.533,8.266-0.533
		C689.658,339.563,695.346,345.251,695.346,351.206z M677.749,359.204c0-3.999-2.311-6.221-9.688-6.221
		c-1.688,0-3.732,0-5.954,0.267c-11.643,1.422-17.686,3.377-19.908,12.798c-1.422,6.487-2.666,12.442-3.555,18.13
		C664.773,379.201,677.749,365.959,677.749,359.204z"/>
</g>
</svg>
