<?xml version="1.0" encoding="utf-8"?>
<!-- Generator: Adobe Illustrator 16.0.0, SVG Export Plug-In . SVG Version: 6.00 Build 0)  -->
<!DOCTYPE svg PUBLIC "-//W3C//DTD SVG 1.1//EN" "http://www.w3.org/Graphics/SVG/1.1/DTD/svg11.dtd">
<svg version="1.1" id="Layer_1" xmlns="http://www.w3.org/2000/svg" xmlns:xlink="http://www.w3.org/1999/xlink" x="0px" y="0px"
	 width="240px" height="27.371px" viewBox="391.958 370.313 240 27.371" enable-background="new 391.958 370.313 240 27.371"
	 xml:space="preserve">
<g>
	<path d="M427,394.05c0,1.549-1.817,2.806-3.608,2.806c-1.391,0-2.139-1.122-2.139-2.059c0-0.988,1.003-2.806,2.941-2.806
		C425.931,391.965,427,392.979,427,394.05z M606.459,395.438c0,0.188-0.053,0.375-0.188,0.669c-0.348,0.454-0.803,0.642-1.283,0.642
		c-0.455,0-0.936-0.107-1.391-0.374c-2.031-1.043-5.854-4.304-8.365-8.206c0,2.432,0,4.143,0.078,5.801c0,0.133,0,0.268,0,0.4
		c0,2.005-0.453,2.539-1.602,2.539c-1.283,0-1.817-0.455-1.817-2.219c0-2.191,0-4.651,0-7.002c0-2.86,0-5.533-0.214-7.405
		c-0.268-2.673-1.256-3.395-1.256-4.276c0-0.936,0.721-1.523,1.523-1.523c1.336,0,2.672,1.925,2.672,5.078c0,0.108,0,0.268,0,0.402
		c1.951-3.315,5.133-5.854,7.403-5.854c2.22,0,3.743,1.791,3.743,3.716c0,3.287-3.637,7.43-7.512,9.408
		c2.539,3.101,5.16,5.078,6.309,5.934C605.817,394.102,606.459,394.69,606.459,395.438z M595.526,385.148
		c0.856,0,2.807-0.481,5.266-3.502c1.068-1.309,1.658-2.726,1.658-3.581c0-0.348-0.054-0.615-0.268-0.748
		c-0.135-0.107-0.322-0.188-0.533-0.188c-0.75,0-1.873,0.774-3.396,2.54C596.382,381.861,595.526,383.464,595.526,385.148z
		 M488.411,373.201c-1.217,0.133-1.605,0.722-1.605,2.593c0,0.48,0,1.015,0.054,1.683c0.334,5.534,1.003,11.013,1.604,15.797
		c0.334,2.487,0.881,3.155,1.884,3.155c0.121,0,0.334-0.054,0.455-0.054c1.001-0.134,1.457-0.614,1.457-1.897
		c0-0.375-0.067-0.776-0.121-1.311c-0.254-1.737-0.508-3.875-0.749-6.041c2.7,2.699,6.762,5.721,8.031,6.709
		c0.789,0.589,1.552,0.936,2.153,0.936c0.535,0,1.055-0.293,1.457-0.801c0.268-0.401,0.388-0.723,0.388-1.069
		c0-0.668-0.535-1.257-1.726-2.059c-1.723-1.176-4.329-3.153-7.937-6.095c3.394-3.795,6.562-7.644,8.004-9.702
		c0.067-0.08,0.067-0.133,0.067-0.214c0-0.534-1.002-1.684-1.817-1.684c-0.067,0-0.12,0-0.214,0
		c-1.885,1.791-4.036,3.902-8.888,9.916c-0.255-2.353-0.44-4.464-0.521-5.774c-0.268-3.153-0.547-4.062-1.67-4.062
		C488.677,373.201,488.529,373.201,488.411,373.201z M443.412,385.683c-3.73-2.272-7.205-4.224-7.205-5.935
		c0-1.604,2.272-4.678,2.874-4.678c0.937,0,0.669,1.068,1.939,1.068c1.269,0,1.99-1.656,1.99-3.34c0-1.657-0.722-2.486-1.99-2.486
		c-2.821,0-4.611,2.086-5.935,4.062c-1.215,1.818-1.885,4.01-1.885,5.881c0,4.892,5.814,7.163,5.814,8.367
		c0,0.721-4.264,3.394-7.084,4.249c-1.002,0.348-1.055,1.016-1.055,1.951c0,0.802,0.2,1.87,1.001,1.87c0.053,0,0.2,0,0.334-0.053
		c2.471-0.803,7.202-3.073,11.2-8.099c0.267-0.321,0.734-1.042,0.734-1.604C444.161,386.27,443.745,385.896,443.412,385.683z
		 M467.24,396.161c1.124,0,1.671-0.268,2.151-2.22c0.201-0.774,0.669-3.313,1.938-7.59c2.125-6.95,4.932-9.142,6.121-9.142
		c0.575,0,0.602,1.711,0.869,6.469c-0.977,0.106-1.978,0.24-2.807,0.4c-2.059,0.401-2.808,1.202-2.808,2.139
		c0,0.668,0.656,0.989,2.928,0.989c0.667,0,1.457,0,2.392-0.054c0.186-0.027,0.361-0.027,0.521-0.027
		c0.387,3.287,1.177,6.389,1.817,7.966c0.455,1.202,1.271,1.47,2.272,1.47c1.003,0,1.726-0.348,1.726-1.336
		c0-0.268-0.054-0.669-0.201-1.069c-0.442-1.364-1.337-4.17-1.818-7.592c1.15-0.373,1.417-0.909,1.417-1.765
		c0-0.988-0.521-1.282-1.684-1.336c-0.121-2.566-0.214-6.843-0.587-8.339c-0.334-1.336-0.936-2.406-2.539-2.406
		c-1.764,0-4.17,1.711-6.161,4.17c-0.094-1.282-0.442-2.218-1.19-2.218c-1.336,0-1.723,1.391-3.608,9.916
		c-1.457,6.603-2.205,8.874-2.205,10.265C465.851,395.813,466.239,396.161,467.24,396.161z M459.301,373.923
		c-1.055,0-1.457,0.453-1.457,1.951c0,0.213,0,0.453,0,0.721c0.067,1.497,0.375,3.635,0.708,6.844
		c-2.686,0.373-6.121,0.802-8.739,1.016c0.267-2.701,0.801-5.587,1.562-8.741c0.055-0.188,0.055-0.374,0.055-0.588
		c0-0.936-0.669-1.283-1.391-1.283c-0.936,0-2.151,0.348-2.151,1.39c0,2.728-1.336,7.832-1.938,11.761
		c-0.054,0.535-0.12,1.123-0.12,1.657c0,2.807,0.869,5.561,1.389,7.003c0.469,1.203,1.338,1.738,2.152,1.738
		c1.39,0,1.818-0.883,1.818-1.471c0-0.453-0.803-1.657-1.217-4.062c-0.186-1.23-0.307-2.514-0.335-3.797
		c2.541-0.268,6.416-0.828,9.249-1.39c0.267,3.153,0.228,5.561,0.562,7.19c0.399,1.47,1.122,2.405,2.07,2.405
		c0.055,0,0.121,0,0.202,0c0.734-0.08,1.336-0.801,1.403-1.871c0.053-0.4,0.053-0.802,0.053-1.149c0-1.87-0.387-3.715-0.602-9.809
		C462.309,377.397,461.707,373.923,459.301,373.923z M414.851,376.594c0-1.069,0.067-2.004,0.135-2.672
		c0.053-0.321,0.053-0.669,0.053-0.937c0-1.442-0.602-1.604-1.124-1.604c-0.935,0-2.539,2.941-4.142,6.016
		c-1.872,3.715-3.663,7.644-4.811,7.644c-0.789,0-2.151-1.656-4.664-8.124c-1.003-2.647-2.526-5.535-3.862-5.535h-0.267
		c-1.725,0-3.061,6.336-3.396,12.162c-0.267,4.678-0.481,5.748-0.682,8.073c-0.067,0.988-0.134,2.005-0.134,2.939
		c0,1.818,0.281,3.128,1.27,3.128c1.136,0,2.874-1.31,3.061-4.464c0.065-0.803,0.065-1.55,0.065-2.059c0-1.95-0.2-2.94-0.2-5.613
		c0-2.646,0.414-5.532,0.949-7.376c1.123,6.227,4.718,9.916,7.457,9.916c2.687,0,5.28-3.661,7.083-7.083
		c0.416,4.33,0.883,8.552,1.858,13.818c0.267,1.551,1.057,2.485,2.139,2.485h0.133c0.936,0,1.271-0.935,1.271-2.539
		c0-2.085-0.602-5.213-1.271-8.5C415.132,382.957,414.851,379.267,414.851,376.594z M589.726,385.736
		c0,0.668-0.614,1.765-2.11,2.165c0.158,2.539,0.266,4.838,0.373,5.587c0.08,0.453,0.08,0.802,0.08,1.123
		c0,1.55-0.562,2.005-1.551,2.005c-1.121,0-1.737-0.723-1.871-2.594c-0.107-1.924-0.188-3.796-0.321-5.854
		c-2.11,0.08-4.755,0.159-7.135,0.188c-1.042,2.244-2.085,4.41-2.753,5.585c-0.937,1.685-1.604,2.54-2.619,2.54
		c-0.722,0-1.392-0.455-1.392-1.123c0-0.32,0.215-0.881,0.749-2.058c1.257-2.86,3.475-8.606,4.33-11.28
		c0.375-1.256,0.533-2.138,0.533-2.912c0-1.951-1.336-2.834-1.336-3.956c0-1.043,0.937-1.657,1.873-1.657
		c1.336,0,2.352,1.657,2.352,4.864c0,0.081,0,0.187,0,0.268c1.336-2.139,3.02-4.063,4.517-4.063c2.538,0,3.502,2.86,3.689,5.213
		c0.079,0.828,0.185,3.02,0.347,5.426c0.588-0.054,1.068-0.054,1.443-0.08c0.08,0,0.133,0,0.133,0
		C589.646,385.067,589.726,385.415,589.726,385.736z M584.141,385.308c-0.054-0.881-0.135-1.791-0.241-2.779
		c-0.108-1.604-0.643-4.598-1.124-4.598c-0.455,0-1.869,2.406-2.726,4.276c-0.401,0.855-0.935,1.979-1.497,3.207
		c0.081,0,0.161,0,0.24,0C580.585,385.415,582.456,385.362,584.141,385.308z M622.282,392.819c-0.882,0-2.807,0.535-5.8,0.535
		c-1.818,0-1.818-1.471-1.818-3.875c0-0.562-0.026-1.311-0.054-2.192c3.743-0.161,9.117-0.428,13.338-0.909
		c1.819-0.214,2.888-0.882,2.888-2.165c0-0.669-0.294-0.855-1.149-0.855c-3.582,0-5.052,0.668-15.156,0.774
		c-0.053-1.71-0.105-3.688-0.134-5.772c0.081,0,0.188,0,0.268,0c4.196,0,9.462-0.481,12.001-0.802
		c2.219-0.269,3.156-0.989,3.156-2.273c0-0.533-0.455-0.801-1.445-0.721c-2.03,0.188-4.438,0.562-14.033,0.775
		c-0.24-1.844-1.068-2.727-2.109-2.727c-0.884,0-1.338,0.615-1.338,2.271c0,0.188,0,0.375,0,0.562
		c-2.299,0.267-3.34,0.881-3.34,1.951c0,0.641,0.801,0.855,3.395,0.908c0.08,1.924,0.186,3.715,0.268,5.854
		c-3.584,0.107-4.197,0.937-4.197,2.059c0,1.069,0.535,1.283,3.528,1.202c0.188,0,0.454,0,0.747,0c0.027,1.123,0,2.353-0.025,3.77
		c-0.053,2.539,0.963,5.398,3.555,5.398h4.998c1.926,0,3.154,0,3.476-1.442C623.618,393.434,623.004,392.819,622.282,392.819z
		 M629.366,391.83c-2.22,0-2.807,1.926-2.807,2.86c0,1.417,0.587,2.059,2.378,2.059c1.685,0,3.021-1.043,3.021-2.325
		C631.958,393.354,631.584,391.83,629.366,391.83z M566.231,391.936c-0.079,0-0.214,0-0.267,0c-1.551,0.215-4.678,1.018-6.603,1.018
		c-1.282,0-1.872-0.615-1.872-1.551c0-0.322,0-0.588,0-0.99c0-0.721,0-1.549,0.081-2.512c1.738,0.133,3.823,0.241,5.774,0.241
		c1.122,0,2.218-0.081,3.073-0.134c1.257-0.134,1.658-0.455,1.658-1.39c0-0.055,0-0.215,0-0.268c-0.055-1.07-0.268-1.39-0.937-1.39
		c-0.054,0-0.135,0-0.214,0c-0.854,0.053-1.926,0.105-3.127,0.105c-1.818,0-3.956-0.105-5.827-0.268
		c0.454-2.217,1.31-4.649,2.218-7.108c1.283,0.026,3.129,0.026,5.667,0.026c1.604,0,2.94-0.214,2.94-1.737
		c0-1.39-0.935-1.442-2.164-1.442c-2.46,0-4.198,0.025-5.507,0.133c-0.135-0.374-0.587-0.643-1.363-0.802
		c-0.268-0.054-0.454-0.054-0.669-0.054c-0.774,0-1.042,0.454-1.443,1.337c-2.806,6.12-3.475,9.915-3.821,12.616
		c-0.053,0.588-0.134,1.202-0.134,1.817c0,2.191,0.48,4.384,1.149,5.585c0.587,1.07,1.711,1.471,3.047,1.471
		c0.534,0,1.124-0.08,1.657-0.213c1.604-0.349,6.147-1.123,8.501-1.123c0.666,0,1.041-0.135,1.041-0.882
		C569.091,393.675,567.969,391.936,566.231,391.936z M517.291,378.733c2.271,0,4.49-2.058,4.49-2.859
		c0-0.349-0.066-0.668-0.802-0.668c-1.684,0-6.936,0.213-11.08,0.293c0-0.16,0-0.293,0-0.454c0-1.39-0.067-2.192-1.603-2.192h-0.722
		c-1.403,0-1.738,1.204-1.738,2.326v8.74c0,3.288-0.267,5.479-0.267,7.831c0,3.208,4.263,4.518,8.753,4.518h1.124
		c4.543,0,5.532-1.042,5.532-2.593c0-1.123-0.119-1.657-1.123-1.657c-0.787,0-2.137,0.855-4.864,0.855
		c-4.544,0-5.814-1.311-5.814-3.128c0-0.641,0-1.256,0.014-1.87c2.446,0.081,4.812,0.187,6.669,0.187
		c1.203,0,2.204-0.08,2.873-0.134c0.455-0.053,0.79-0.882,0.79-1.657c0-0.561-0.203-1.068-0.537-1.283
		c-1.336-0.213-3.34-0.266-6.079-0.266c-1.071,0-2.299,0.053-3.636,0.053c0.107-2.219,0.254-4.196,0.375-5.827
		C512.48,378.893,515.567,378.733,517.291,378.733z M535.92,377.076c0.615-0.214,0.803-0.614,0.803-0.989
		c0-0.293-0.082-0.615-0.135-0.881c-0.213-0.615-0.614-0.937-1.203-0.937c-0.08,0-0.133,0-0.214,0
		c-2.886,0.054-11.077,3.662-11.077,8.874c0,4.276,7.47,4.999,7.47,6.336c0,1.201-1.389,1.924-7.872,3.875
		c-1.057,0.32-1.536,0.721-1.536,1.39c0,0.268,0.054,0.588,0.2,0.936c0.215,0.668,0.549,0.882,1.069,0.882
		c0.388,0,0.868-0.08,1.456-0.268c6.736-1.897,10.691-3.234,10.691-6.949c0-4.277-7.938-4.277-7.938-6.655
		C527.663,380.47,532.847,377.878,535.92,377.076z M554.925,376.327c0,4.679-6.229,9.677-13.632,10.799
		c-0.026,0.481-0.053,0.908-0.053,1.337c0,1.123,0.08,2.272,0.293,3.396c0.32,2.164,1.043,3.206,1.043,3.608
		c0,0.613-0.374,1.469-1.791,1.469c-0.801,0-1.685-0.561-2.166-1.737c-0.455-1.336-0.988-3.876-0.988-6.468
		c0-0.615,0-1.123,0.054-1.738c0.401-3.929,1.017-7.805,1.336-9.407c0.455-1.952,1.551-2.888,6.335-3.476l2.94-0.401
		c0.723-0.08,1.389-0.134,1.924-0.134C553.616,373.601,554.925,374.938,554.925,376.327z M550.809,378.199
		c0-0.937-0.534-1.444-2.272-1.444c-0.401,0-0.882,0-1.39,0.054c-2.727,0.321-4.143,0.776-4.677,2.993
		c-0.322,1.524-0.616,2.915-0.83,4.251C547.762,382.876,550.809,379.776,550.809,378.199z"/>
</g>
</svg>
